<?xml version="1.0" encoding="UTF-8"?>
<svg id="Layer_1" data-name="Layer 1" xmlns="http://www.w3.org/2000/svg" viewBox="0 0 60 60">
  <defs>
    <style>
      .cls-1, .cls-2 {
        fill: #fd5b4f;
      }

      .cls-2 {
        isolation: isolate;
        opacity: .2;
      }
    </style>
  </defs>
  <path class="cls-2" d="M30,60h0C13.43,60,0,46.57,0,30h0C0,13.43,13.43,0,30,0h0C46.57,0,60,13.43,60,30h0c0,16.57-13.43,30-30,30Z"/>
  <path class="cls-1" d="M27.99,39.19c.39.39,1.02.39,1.41,0,.39-.39.39-1.02,0-1.41l-6.78-6.78h17.17c.55,0,1-.45,1-1s-.45-1-1-1h-17.17l6.78-6.78c.39-.39.39-1.02,0-1.41-.39-.39-1.02-.39-1.41,0l-8.46,8.46c-.2.18-.32.44-.32.73,0,.19.05.37.14.52.04.07.09.13.15.19l8.49,8.49Z"/>
</svg>